<svg xmlns="http://www.w3.org/2000/svg" xmlns:xlink="http://www.w3.org/1999/xlink" width="500" zoomAndPan="magnify" viewBox="0 0 375 374.999991" height="500" preserveAspectRatio="xMidYMid meet" version="1.0"><defs><g/><clipPath id="0ce4039253"><path d="M 95.878906 95.878906 L 279.121094 95.878906 L 279.121094 279.121094 L 95.878906 279.121094 Z M 95.878906 95.878906 " clip-rule="nonzero"/></clipPath><clipPath id="c7aec59302"><path d="M 187.5 95.878906 C 136.898438 95.878906 95.878906 136.898438 95.878906 187.5 C 95.878906 238.101562 136.898438 279.121094 187.5 279.121094 C 238.101562 279.121094 279.121094 238.101562 279.121094 187.5 C 279.121094 136.898438 238.101562 95.878906 187.5 95.878906 Z M 187.5 95.878906 " clip-rule="nonzero"/></clipPath></defs><g clip-path="url(#0ce4039253)"><g clip-path="url(#c7aec59302)"><path fill="#545454" d="M 95.878906 95.878906 L 279.121094 95.878906 L 279.121094 279.121094 L 95.878906 279.121094 Z M 95.878906 95.878906 " fill-opacity="1" fill-rule="nonzero"/></g></g><g fill="#ffffff" fill-opacity="1"><g transform="translate(117.548454, 164.477444)"><g><path d="M -0.140625 -6.59375 C -0.140625 -6.59375 -0.09375 -6.570312 0 -6.53125 L -0.125 -6.125 L 2.171875 -5.015625 C 2.160156 -4.898438 2.078125 -4.597656 1.921875 -4.109375 C 1.765625 -3.628906 1.613281 -3.242188 1.46875 -2.953125 C 1.332031 -2.671875 1.191406 -2.4375 1.046875 -2.25 C 0.910156 -2.0625 0.71875 -1.878906 0.46875 -1.703125 C 0.21875 -1.523438 -0.046875 -1.398438 -0.328125 -1.328125 C -0.617188 -1.265625 -0.976562 -1.265625 -1.40625 -1.328125 C -1.84375 -1.398438 -2.3125 -1.554688 -2.8125 -1.796875 C -3.914062 -2.316406 -4.648438 -2.984375 -5.015625 -3.796875 C -5.398438 -4.640625 -5.375 -5.519531 -4.9375 -6.4375 C -4.800781 -6.707031 -4.628906 -6.992188 -4.421875 -7.296875 C -4.210938 -7.597656 -4.050781 -7.8125 -3.9375 -7.9375 L -2.546875 -7.375 L -2.5625 -7.171875 L -3.625 -7.53125 C -4.195312 -7.195312 -4.59375 -6.8125 -4.8125 -6.375 C -5.144531 -5.664062 -5.117188 -4.960938 -4.734375 -4.265625 C -4.347656 -3.578125 -3.601562 -2.96875 -2.5 -2.4375 C -1.15625 -1.789062 -0.140625 -1.679688 0.546875 -2.109375 C 0.742188 -2.242188 0.898438 -2.378906 1.015625 -2.515625 C 1.140625 -2.660156 1.269531 -2.875 1.40625 -3.15625 C 1.539062 -3.445312 1.695312 -3.882812 1.875 -4.46875 L -0.234375 -5.546875 C -0.316406 -5.578125 -0.382812 -5.5625 -0.4375 -5.5 L -0.796875 -4.859375 C -0.847656 -4.867188 -0.898438 -4.890625 -0.953125 -4.921875 Z M -0.140625 -6.59375 "/></g></g></g><g fill="#ffffff" fill-opacity="1"><g transform="translate(124.07598, 152.415091)"><g><path d="M -5.4375 -4.5625 L -5.546875 -4.65625 L -4.0625 -6.6875 C -3.644531 -7.257812 -3.203125 -7.613281 -2.734375 -7.75 C -2.265625 -7.882812 -1.78125 -7.769531 -1.28125 -7.40625 C -0.957031 -7.175781 -0.707031 -6.804688 -0.53125 -6.296875 C -0.363281 -5.785156 -0.3125 -5.382812 -0.375 -5.09375 L 3.265625 -4.828125 L 3.59375 -5.203125 C 3.601562 -5.191406 3.644531 -5.160156 3.71875 -5.109375 L 3.0625 -4.171875 L -0.65625 -4.46875 L -1.484375 -3.34375 L 0.90625 -1.609375 L 1.390625 -2.171875 C 1.398438 -2.160156 1.4375 -2.128906 1.5 -2.078125 L 0.296875 -0.375 L 0.1875 -0.484375 L 0.4375 -0.953125 C 0.46875 -0.992188 0.46875 -1.039062 0.4375 -1.09375 L -4.921875 -5 C -4.984375 -5.007812 -5.03125 -4.992188 -5.0625 -4.953125 Z M -3.984375 -6.5625 L -4.640625 -5.65625 L -1.609375 -3.4375 L -0.546875 -4.890625 C -0.671875 -5.410156 -0.820312 -5.8125 -1 -6.09375 C -1.175781 -6.382812 -1.390625 -6.617188 -1.640625 -6.796875 C -2.109375 -7.140625 -2.539062 -7.285156 -2.9375 -7.234375 C -3.332031 -7.191406 -3.679688 -6.96875 -3.984375 -6.5625 Z M -3.984375 -6.5625 "/></g></g></g><g fill="#ffffff" fill-opacity="1"><g transform="translate(132.810897, 141.587728)"><g><path d="M -4.5625 -5.4375 L -4.671875 -5.546875 L -1.484375 -8.625 L -1.453125 -8.59375 L -0.359375 -7.625 L -0.4375 -7.4375 L -1.5 -8.3125 L -3.546875 -6.359375 L -1.234375 -3.9375 L 0.5625 -5.65625 C 0.582031 -5.675781 0.597656 -5.703125 0.609375 -5.734375 C 0.617188 -5.765625 0.609375 -5.796875 0.578125 -5.828125 L 0.109375 -6.390625 L 0.21875 -6.515625 L 1.453125 -5.234375 C 1.441406 -5.222656 1.398438 -5.1875 1.328125 -5.125 L 0.8125 -5.609375 L -1.078125 -3.796875 L 1.1875 -1.421875 L 3.421875 -3.5625 L 2.421875 -4.90625 L 2.609375 -5.015625 L 3.734375 -3.59375 L 1.84375 -1.78125 L 0.359375 -0.3125 L 0.25 -0.421875 L 0.609375 -0.859375 C 0.640625 -0.910156 0.632812 -0.972656 0.59375 -1.046875 L -3.953125 -5.765625 C -4.015625 -5.816406 -4.066406 -5.820312 -4.109375 -5.78125 Z M -4.5625 -5.4375 "/></g></g></g><g fill="#ffffff" fill-opacity="1"><g transform="translate(142.597669, 133.051603)"><g><path d="M -0.9375 -7.921875 C -1.582031 -7.484375 -1.914062 -6.867188 -1.9375 -6.078125 C -1.957031 -5.296875 -1.625 -4.394531 -0.9375 -3.375 C -0.101562 -2.132812 0.722656 -1.523438 1.546875 -1.546875 C 1.785156 -1.554688 1.988281 -1.59375 2.15625 -1.65625 C 2.320312 -1.726562 2.492188 -1.820312 2.671875 -1.9375 C 3.242188 -2.320312 3.785156 -2.789062 4.296875 -3.34375 L 4.40625 -3.25 C 4.332031 -3.144531 4.109375 -2.921875 3.734375 -2.578125 C 3.359375 -2.242188 3.035156 -1.988281 2.765625 -1.8125 C 2.503906 -1.632812 2.265625 -1.5 2.046875 -1.40625 C 1.828125 -1.3125 1.5625 -1.25 1.25 -1.21875 C 0.945312 -1.195312 0.65625 -1.226562 0.375 -1.3125 C 0.09375 -1.40625 -0.210938 -1.59375 -0.546875 -1.875 C -0.878906 -2.15625 -1.203125 -2.523438 -1.515625 -2.984375 C -2.191406 -3.992188 -2.492188 -4.9375 -2.421875 -5.8125 C -2.328125 -6.726562 -1.859375 -7.472656 -1.015625 -8.046875 C -0.765625 -8.210938 -0.472656 -8.375 -0.140625 -8.53125 C 0.191406 -8.6875 0.4375 -8.789062 0.59375 -8.84375 L 1.515625 -7.671875 L 1.40625 -7.5 L 0.671875 -8.328125 C 0.00390625 -8.328125 -0.53125 -8.191406 -0.9375 -7.921875 Z M -0.9375 -7.921875 "/></g></g></g><g fill="#ffffff" fill-opacity="1"><g transform="translate(153.941885, 126.224139)"><g><path d="M 0.46875 -0.203125 L 0.421875 -0.34375 L 0.875 -0.640625 C 0.9375 -0.679688 0.957031 -0.738281 0.9375 -0.8125 L 0.953125 -0.828125 L -1.8125 -6.75 L -1.828125 -6.734375 C -1.878906 -6.816406 -1.9375 -6.84375 -2 -6.8125 L -2.515625 -6.625 L -2.59375 -6.765625 L -0.71875 -7.640625 C -0.71875 -7.640625 -0.691406 -7.597656 -0.640625 -7.515625 L -1.234375 -7.171875 L 1.640625 -1 L 2.296875 -1.25 C 2.296875 -1.238281 2.3125 -1.1875 2.34375 -1.09375 Z M 0.46875 -0.203125 "/></g></g></g><g fill="#ffffff" fill-opacity="1"><g transform="translate(163.676874, 122.167433)"><g><path d="M 0.15625 -0.03125 L 0.140625 -0.1875 L 0.609375 -0.390625 C 0.660156 -0.410156 0.691406 -0.460938 0.703125 -0.546875 L 1 -7.796875 L 1.65625 -7.984375 L 5.828125 -1.859375 L 6.546875 -2.015625 C 6.554688 -2.003906 6.566406 -1.945312 6.578125 -1.84375 L 4.59375 -1.28125 C 4.582031 -1.34375 4.570312 -1.394531 4.5625 -1.4375 L 5.046875 -1.640625 C 5.097656 -1.648438 5.113281 -1.691406 5.09375 -1.765625 L 4.078125 -3.234375 L 0.984375 -2.375 L 0.9375 -0.484375 L 2.125 -0.765625 C 2.132812 -0.753906 2.144531 -0.703125 2.15625 -0.609375 Z M 1.109375 -7.625 L 1 -2.59375 L 3.984375 -3.421875 Z M 1.109375 -7.625 "/></g></g></g><g fill="#ffffff" fill-opacity="1"><g transform="translate(177.66285, 119.021439)"><g/></g></g><g fill="#ffffff" fill-opacity="1"><g transform="translate(188.178106, 118.330976)"><g><path d="M 2.484375 -0.09375 C 2.992188 -0.0703125 3.445312 -0.203125 3.84375 -0.484375 C 4.238281 -0.765625 4.445312 -1.210938 4.46875 -1.828125 C 4.488281 -2.109375 4.429688 -2.347656 4.296875 -2.546875 C 4.171875 -2.742188 4 -2.898438 3.78125 -3.015625 C 3.570312 -3.140625 3.335938 -3.242188 3.078125 -3.328125 C 2.816406 -3.421875 2.554688 -3.515625 2.296875 -3.609375 C 2.035156 -3.710938 1.796875 -3.832031 1.578125 -3.96875 C 1.367188 -4.101562 1.203125 -4.285156 1.078125 -4.515625 C 0.953125 -4.753906 0.898438 -5.03125 0.921875 -5.34375 C 0.941406 -5.894531 1.148438 -6.335938 1.546875 -6.671875 C 1.941406 -7.015625 2.453125 -7.171875 3.078125 -7.140625 C 3.710938 -7.117188 4.316406 -7.023438 4.890625 -6.859375 L 4.953125 -5.546875 L 4.75 -5.484375 L 4.6875 -6.296875 C 4.1875 -6.691406 3.710938 -6.898438 3.265625 -6.921875 C 2.816406 -6.941406 2.4375 -6.820312 2.125 -6.5625 C 1.8125 -6.300781 1.644531 -5.898438 1.625 -5.359375 C 1.601562 -5.035156 1.71875 -4.773438 1.96875 -4.578125 C 2.21875 -4.390625 2.519531 -4.234375 2.875 -4.109375 C 3.226562 -3.992188 3.582031 -3.863281 3.9375 -3.71875 C 4.300781 -3.570312 4.601562 -3.335938 4.84375 -3.015625 C 5.082031 -2.691406 5.191406 -2.28125 5.171875 -1.78125 C 5.148438 -1.113281 4.890625 -0.617188 4.390625 -0.296875 C 3.898438 0.015625 3.265625 0.15625 2.484375 0.125 C 1.710938 0.09375 1.050781 -0.148438 0.5 -0.609375 L 0.546875 -1.703125 L 0.75 -1.734375 L 0.734375 -1.140625 C 0.910156 -0.867188 1.15625 -0.628906 1.46875 -0.421875 C 1.789062 -0.222656 2.128906 -0.113281 2.484375 -0.09375 Z M 2.484375 -0.09375 "/></g></g></g><g fill="#ffffff" fill-opacity="1"><g transform="translate(200.955811, 119.463891)"><g><path d="M 0.15625 0.046875 L 0.203125 -0.109375 L 0.734375 -0.046875 C 0.785156 -0.046875 0.835938 -0.078125 0.890625 -0.140625 L 4.5625 -6.390625 L 5.234375 -6.25 L 6.03125 1.140625 L 6.703125 1.34375 C 6.703125 1.351562 6.6875 1.398438 6.65625 1.484375 L 4.65625 1.0625 C 4.664062 1 4.675781 0.945312 4.6875 0.90625 L 5.234375 0.953125 C 5.285156 0.953125 5.320312 0.921875 5.34375 0.859375 L 5.140625 -0.921875 L 2 -1.625 L 1.0625 0.015625 L 2.234375 0.328125 C 2.234375 0.335938 2.21875 0.390625 2.1875 0.484375 Z M 4.609375 -6.1875 L 2.09375 -1.8125 L 5.125 -1.140625 Z M 4.609375 -6.1875 "/></g></g></g><g fill="#ffffff" fill-opacity="1"><g transform="translate(214.719327, 123.243797)"><g><path d="M 3.25 -6.3125 L 3.3125 -6.453125 L 4.609375 -5.890625 L 5.5625 2.09375 L 8.109375 -3.984375 C 8.117188 -4.054688 8.101562 -4.109375 8.0625 -4.140625 L 7.21875 -4.59375 C 7.238281 -4.625 7.257812 -4.671875 7.28125 -4.734375 L 9.0625 -3.953125 C 9.0625 -3.953125 9.046875 -3.90625 9.015625 -3.8125 L 8.40625 -4 L 5.609375 2.4375 L 4.90625 2.125 L 3.984375 -5.84375 L 1.359375 0.34375 L 2.40625 0.875 C 2.40625 0.882812 2.382812 0.929688 2.34375 1.015625 L 0.4375 0.203125 L 0.5 0.0625 L 1.015625 0.21875 C 1.078125 0.226562 1.132812 0.203125 1.1875 0.140625 L 3.796875 -5.875 C 3.804688 -5.957031 3.785156 -6.007812 3.734375 -6.03125 Z M 3.25 -6.3125 "/></g></g></g><g fill="#ffffff" fill-opacity="1"><g transform="translate(227.791303, 129.717478)"><g><path d="M 6.984375 -3.859375 C 6.335938 -4.285156 5.644531 -4.359375 4.90625 -4.078125 C 4.164062 -3.796875 3.453125 -3.144531 2.765625 -2.125 C 1.929688 -0.882812 1.679688 0.101562 2.015625 0.84375 C 2.109375 1.070312 2.21875 1.25 2.34375 1.375 C 2.476562 1.507812 2.628906 1.632812 2.796875 1.75 C 3.367188 2.125 4.007812 2.453125 4.71875 2.734375 L 4.671875 2.859375 C 4.546875 2.835938 4.253906 2.710938 3.796875 2.484375 C 3.335938 2.253906 2.972656 2.050781 2.703125 1.875 C 2.441406 1.695312 2.226562 1.523438 2.0625 1.359375 C 1.894531 1.191406 1.742188 0.972656 1.609375 0.703125 C 1.472656 0.429688 1.394531 0.148438 1.375 -0.140625 C 1.351562 -0.441406 1.40625 -0.800781 1.53125 -1.21875 C 1.664062 -1.632812 1.882812 -2.070312 2.1875 -2.53125 C 2.863281 -3.539062 3.625 -4.171875 4.46875 -4.421875 C 5.351562 -4.679688 6.21875 -4.53125 7.0625 -3.96875 C 7.3125 -3.789062 7.570312 -3.578125 7.84375 -3.328125 C 8.113281 -3.078125 8.300781 -2.890625 8.40625 -2.765625 L 7.671875 -1.46875 L 7.46875 -1.515625 L 7.96875 -2.515625 C 7.71875 -3.128906 7.390625 -3.578125 6.984375 -3.859375 Z M 6.984375 -3.859375 "/></g></g></g><g fill="#ffffff" fill-opacity="1"><g transform="translate(238.380739, 137.564597)"><g><path d="M 9.75 -0.609375 C 9.75 -0.609375 9.710938 -0.566406 9.640625 -0.484375 L 9.125 -0.875 L 4.375 4 L 4.890625 4.546875 C 4.878906 4.554688 4.835938 4.585938 4.765625 4.640625 L 3.28125 3.21875 C 3.320312 3.164062 3.359375 3.132812 3.390625 3.125 L 3.828125 3.453125 C 3.890625 3.492188 3.945312 3.484375 4 3.421875 L 6.203125 1.171875 L 3.671875 -1.296875 L 1.375 1.0625 L 1.90625 1.640625 C 1.894531 1.648438 1.859375 1.6875 1.796875 1.75 L 0.28125 0.296875 L 0.390625 0.203125 L 0.828125 0.53125 C 0.890625 0.5625 0.953125 0.5625 1.015625 0.53125 L 5.59375 -4.171875 C 5.632812 -4.242188 5.628906 -4.300781 5.578125 -4.34375 L 5.234375 -4.765625 L 5.34375 -4.90625 L 6.84375 -3.4375 C 6.84375 -3.4375 6.804688 -3.394531 6.734375 -3.3125 L 6.125 -3.8125 L 3.8125 -1.4375 L 6.34375 1.03125 L 8.5625 -1.25 C 8.625 -1.3125 8.628906 -1.367188 8.578125 -1.421875 L 8.234375 -1.84375 C 8.265625 -1.882812 8.300781 -1.929688 8.34375 -1.984375 Z M 9.75 -0.609375 "/></g></g></g><g fill="#ffffff" fill-opacity="1"><g transform="translate(248.203751, 148.160647)"><g><path d="M 6.03125 -3.734375 L 6.171875 -3.796875 L 8.734375 -0.1875 L 8.71875 -0.171875 L 7.609375 0.765625 L 7.421875 0.65625 L 8.4375 -0.265625 L 6.796875 -2.578125 L 4.0625 -0.640625 L 5.515625 1.390625 C 5.523438 1.410156 5.546875 1.425781 5.578125 1.4375 C 5.617188 1.445312 5.65625 1.441406 5.6875 1.421875 L 6.296875 1.046875 L 6.40625 1.171875 L 4.96875 2.203125 C 4.96875 2.191406 4.9375 2.144531 4.875 2.0625 L 5.4375 1.625 L 3.90625 -0.515625 L 1.234375 1.375 L 3.03125 3.890625 L 4.5 3.109375 L 4.578125 3.3125 L 3 4.234375 L 1.484375 2.09375 L 0.25 0.390625 L 0.390625 0.3125 L 0.765625 0.71875 C 0.804688 0.769531 0.863281 0.769531 0.9375 0.71875 L 6.265625 -3.078125 C 6.335938 -3.117188 6.351562 -3.164062 6.3125 -3.21875 Z M 6.03125 -3.734375 "/></g></g></g><g fill="#ffffff" fill-opacity="1"><g transform="translate(255.21396, 159.08918)"><g><path d="M 0.15625 0.328125 L 0.25 0.171875 L 8.25 0.859375 L 6.734375 -2.34375 L 5.375 -1.90625 L 5.359375 -2.125 L 6.765625 -2.640625 L 8.703125 1.421875 L 8.59375 1.578125 L 0.59375 0.890625 L 2.4375 4.734375 L 4.046875 4.1875 L 4.09375 4.359375 L 2.390625 5 Z M 0.15625 0.328125 "/></g></g></g><path stroke-linecap="round" transform="matrix(0, 0.75, -0.75, 0, 188.280767, 166.032205)" fill="none" stroke-linejoin="miter" d="M 0.998727 0.999357 L 53.337272 0.999357 " stroke="#ffffff" stroke-width="2" stroke-opacity="1" stroke-miterlimit="4"/><g fill="#ffffff" fill-opacity="1"><g transform="translate(195.687647, 202.062966)"><g><path d="M 19.890625 -16.1875 C 19.890625 -16.9375 19.679688 -17.75 19.265625 -18.625 C 18.859375 -19.5 18.296875 -20.359375 17.578125 -21.203125 C 16.867188 -22.046875 16.054688 -22.796875 15.140625 -23.453125 C 14.234375 -24.117188 13.285156 -24.601562 12.296875 -24.90625 C 11.316406 -25.207031 10.332031 -25.273438 9.34375 -25.109375 C 8.363281 -24.953125 7.484375 -24.460938 6.703125 -23.640625 C 5.953125 -22.890625 5.59375 -22.003906 5.625 -20.984375 C 5.664062 -19.960938 6.097656 -19.046875 6.921875 -18.234375 C 7.523438 -17.617188 8.425781 -17.007812 9.625 -16.40625 C 10.820312 -15.800781 12.40625 -15.25 14.375 -14.75 C 15.832031 -14.351562 17.0625 -13.882812 18.0625 -13.34375 C 19.0625 -12.8125 19.882812 -12.242188 20.53125 -11.640625 C 21.570312 -10.597656 22.179688 -9.429688 22.359375 -8.140625 C 22.535156 -6.859375 22.265625 -5.570312 21.546875 -4.28125 C 21.191406 -3.675781 20.769531 -3.113281 20.28125 -2.59375 C 19.800781 -2.082031 19.273438 -1.664062 18.703125 -1.34375 C 18.140625 -0.945312 17.507812 -0.613281 16.8125 -0.34375 C 16.113281 -0.0820312 15.390625 0.125 14.640625 0.28125 C 13.890625 0.445312 13.140625 0.554688 12.390625 0.609375 C 11.640625 0.671875 10.921875 0.679688 10.234375 0.640625 C 8.953125 0.535156 7.601562 0.257812 6.1875 -0.1875 C 4.78125 -0.632812 3.304688 -1.320312 1.765625 -2.25 L 1.34375 -2.515625 L 2.625 -8.46875 L 3.0625 -8.359375 C 2.988281 -8.035156 3.054688 -7.625 3.265625 -7.125 C 3.484375 -6.625 3.753906 -6.101562 4.078125 -5.5625 C 4.398438 -5.03125 4.738281 -4.539062 5.09375 -4.09375 C 5.445312 -3.65625 5.75 -3.328125 6 -3.109375 C 6.71875 -2.390625 7.503906 -1.820312 8.359375 -1.40625 C 9.222656 -1 10.117188 -0.707031 11.046875 -0.53125 C 11.941406 -0.351562 12.828125 -0.28125 13.703125 -0.3125 C 14.578125 -0.351562 15.40625 -0.484375 16.1875 -0.703125 C 16.613281 -0.804688 17.003906 -0.9375 17.359375 -1.09375 C 17.722656 -1.257812 18.101562 -1.445312 18.5 -1.65625 C 18.851562 -1.90625 19.171875 -2.175781 19.453125 -2.46875 C 19.703125 -2.75 19.925781 -3.050781 20.125 -3.375 C 20.320312 -3.695312 20.457031 -4.035156 20.53125 -4.390625 C 20.601562 -4.960938 20.566406 -5.484375 20.421875 -5.953125 C 20.171875 -6.628906 19.75 -7.207031 19.15625 -7.6875 C 18.570312 -8.175781 17.882812 -8.585938 17.09375 -8.921875 C 16.3125 -9.265625 15.460938 -9.5625 14.546875 -9.8125 C 13.640625 -10.0625 12.738281 -10.328125 11.84375 -10.609375 C 10.132812 -11.109375 8.625 -11.820312 7.3125 -12.75 C 6.007812 -13.6875 5.0625 -14.753906 4.46875 -15.953125 C 3.882812 -17.148438 3.707031 -18.425781 3.9375 -19.78125 C 4.164062 -21.132812 4.976562 -22.507812 6.375 -23.90625 C 7.300781 -24.875 8.523438 -25.472656 10.046875 -25.703125 C 11.566406 -25.929688 13.101562 -25.929688 14.65625 -25.703125 C 16.21875 -25.472656 17.628906 -25.046875 18.890625 -24.421875 C 20.160156 -23.796875 21.03125 -23.085938 21.5 -22.296875 L 20.15625 -16.1875 Z M 19.890625 -16.1875 "/></g></g></g><g fill="#ffffff" fill-opacity="1"><g transform="translate(147.417636, 199.436164)"><g><path d="M 1.828125 -9.8125 C 1.359375 -11.5625 1.25 -13.289062 1.5 -15 C 1.75 -16.71875 2.289062 -18.3125 3.125 -19.78125 C 3.96875 -21.25 5.066406 -22.519531 6.421875 -23.59375 C 7.785156 -24.664062 9.34375 -25.429688 11.09375 -25.890625 C 12.882812 -26.390625 14.628906 -26.503906 16.328125 -26.234375 C 18.023438 -25.972656 19.601562 -25.429688 21.0625 -24.609375 L 22.84375 -25.09375 C 24.445312 -25.519531 25.675781 -25.9375 26.53125 -26.34375 C 27.394531 -26.757812 28.015625 -27.132812 28.390625 -27.46875 C 28.765625 -27.8125 28.96875 -28.085938 29 -28.296875 C 29.039062 -28.515625 29.0625 -28.644531 29.0625 -28.6875 L 29.0625 -28.734375 L 29.53125 -28.84375 L 30.015625 -26.859375 L 30.125 -26.375 L 30.609375 -24.390625 L 30.125 -24.28125 C 29.875 -24.601562 29.484375 -24.835938 28.953125 -24.984375 C 28.484375 -25.128906 27.847656 -25.207031 27.046875 -25.21875 C 26.242188 -25.238281 25.195312 -25.109375 23.90625 -24.828125 L 21.65625 -24.28125 C 22.976562 -23.425781 24.117188 -22.34375 25.078125 -21.03125 C 26.046875 -19.726562 26.765625 -18.257812 27.234375 -16.625 C 27.703125 -14.9375 27.816406 -13.257812 27.578125 -11.59375 C 27.347656 -9.9375 26.847656 -8.394531 26.078125 -6.96875 C 25.304688 -5.539062 24.285156 -4.28125 23.015625 -3.1875 C 21.753906 -2.09375 20.300781 -1.28125 18.65625 -0.75 C 17.9375 -0.46875 17.101562 -0.253906 16.15625 -0.109375 C 15.21875 0.0351562 14.242188 0.175781 13.234375 0.3125 C 12.234375 0.457031 11.242188 0.609375 10.265625 0.765625 C 9.285156 0.929688 8.425781 1.175781 7.6875 1.5 C 6.957031 1.820312 6.394531 2.257812 6 2.8125 C 5.613281 3.363281 5.472656 4.070312 5.578125 4.9375 C 5.722656 5.9375 6.132812 6.585938 6.8125 6.890625 C 7.488281 7.191406 8.300781 7.28125 9.25 7.15625 C 10.195312 7.03125 11.222656 6.753906 12.328125 6.328125 C 13.429688 5.898438 14.492188 5.425781 15.515625 4.90625 C 16.535156 4.382812 17.457031 3.882812 18.28125 3.40625 C 19.101562 2.925781 19.675781 2.578125 20 2.359375 C 21.144531 1.640625 22.296875 0.984375 23.453125 0.390625 C 24.617188 -0.191406 25.664062 -0.535156 26.59375 -0.640625 C 27.800781 -0.785156 28.707031 -0.492188 29.3125 0.234375 C 29.925781 0.972656 30.242188 1.878906 30.265625 2.953125 C 30.285156 4.023438 30 5.09375 29.40625 6.15625 C 28.8125 7.226562 27.960938 8.035156 26.859375 8.578125 C 26.003906 8.972656 25.09375 9.171875 24.125 9.171875 C 23.15625 9.171875 22.1875 9.023438 21.21875 8.734375 C 20.257812 8.453125 19.332031 8.050781 18.4375 7.53125 C 17.539062 7.007812 16.773438 6.429688 16.140625 5.796875 L 16.40625 5.515625 C 18.082031 6.835938 19.648438 7.75 21.109375 8.25 C 22.578125 8.75 23.832031 8.695312 24.875 8.09375 C 25.40625 7.769531 25.875 7.285156 26.28125 6.640625 C 26.695312 6.003906 27.003906 5.316406 27.203125 4.578125 C 27.398438 3.847656 27.445312 3.160156 27.34375 2.515625 C 27.238281 1.867188 26.925781 1.40625 26.40625 1.125 C 25.882812 0.84375 25.125 0.789062 24.125 0.96875 C 23.125 1.144531 21.816406 1.71875 20.203125 2.6875 C 19.640625 3.039062 18.851562 3.53125 17.84375 4.15625 C 16.84375 4.78125 15.734375 5.410156 14.515625 6.046875 C 13.304688 6.691406 12.066406 7.265625 10.796875 7.765625 C 9.535156 8.273438 8.359375 8.5625 7.265625 8.625 C 6.171875 8.695312 5.222656 8.5 4.421875 8.03125 C 3.617188 7.570312 3.09375 6.703125 2.84375 5.421875 C 2.625 4.203125 2.898438 3.25 3.671875 2.5625 C 4.441406 1.882812 5.40625 1.359375 6.5625 0.984375 C 7.726562 0.609375 8.941406 0.359375 10.203125 0.234375 C 11.472656 0.109375 12.539062 -0.00390625 13.40625 -0.109375 C 12.039062 -0.210938 10.742188 -0.523438 9.515625 -1.046875 C 8.285156 -1.566406 7.160156 -2.242188 6.140625 -3.078125 C 5.117188 -3.921875 4.234375 -4.910156 3.484375 -6.046875 C 2.734375 -7.191406 2.179688 -8.445312 1.828125 -9.8125 Z M 23.59375 -15.65625 C 23.226562 -16.9375 22.660156 -18.253906 21.890625 -19.609375 C 21.128906 -20.972656 20.210938 -22.15625 19.140625 -23.15625 C 18.066406 -24.15625 16.847656 -24.90625 15.484375 -25.40625 C 14.128906 -25.90625 12.703125 -25.941406 11.203125 -25.515625 C 9.703125 -25.117188 8.488281 -24.367188 7.5625 -23.265625 C 6.632812 -22.160156 5.953125 -20.898438 5.515625 -19.484375 C 5.085938 -18.078125 4.882812 -16.59375 4.90625 -15.03125 C 4.925781 -13.476562 5.113281 -12.0625 5.46875 -10.78125 C 5.820312 -9.488281 6.375 -8.160156 7.125 -6.796875 C 7.875 -5.441406 8.785156 -4.265625 9.859375 -3.265625 C 10.929688 -2.265625 12.144531 -1.515625 13.5 -1.015625 C 14.863281 -0.515625 16.296875 -0.476562 17.796875 -0.90625 C 19.296875 -1.300781 20.507812 -2.050781 21.4375 -3.15625 C 22.375 -4.269531 23.054688 -5.53125 23.484375 -6.9375 C 23.910156 -8.351562 24.125 -9.835938 24.125 -11.390625 C 24.125 -12.941406 23.945312 -14.363281 23.59375 -15.65625 Z M 23.59375 -15.65625 "/></g></g></g><g fill="#ffffff" fill-opacity="1"><g transform="translate(157.615344, 257.4707)"><g><path d="M 3.765625 1.296875 C 2.898438 1.015625 2.304688 0.546875 1.984375 -0.109375 C 1.660156 -0.765625 1.648438 -1.570312 1.953125 -2.53125 L 3.203125 -6.34375 L 3.90625 -6.109375 L 2.671875 -2.3125 C 2.421875 -1.53125 2.40625 -0.890625 2.625 -0.390625 C 2.851562 0.0976562 3.300781 0.453125 3.96875 0.671875 C 4.625 0.878906 5.191406 0.847656 5.671875 0.578125 C 6.148438 0.316406 6.515625 -0.203125 6.765625 -0.984375 L 8 -4.78125 L 8.6875 -4.5625 L 7.4375 -0.75 C 7.132812 0.207031 6.660156 0.851562 6.015625 1.1875 C 5.367188 1.53125 4.617188 1.566406 3.765625 1.296875 Z M 3.765625 1.296875 "/></g></g></g><g fill="#ffffff" fill-opacity="1"><g transform="translate(173.210537, 261.607487)"><g><path d="M 5.5 0.625 L 3.609375 -2.6875 L 1.015625 0.109375 L 0.171875 0.015625 L 3.21875 -3.25 L 1.140625 -6.921875 L 1.984375 -6.828125 L 3.765625 -3.734375 L 6.171875 -6.359375 L 6.953125 -6.265625 L 4.09375 -3.171875 L 6.359375 0.734375 Z M 5.5 0.625 "/></g></g></g><g fill="#ffffff" fill-opacity="1"><g transform="translate(187.864772, 262.458777)"><g><path d="M 2.59375 -8.59375 L 3.234375 -8.625 L 0.46875 0.984375 L -0.1875 1.015625 Z M 2.59375 -8.59375 "/></g></g></g><g fill="#ffffff" fill-opacity="1"><g transform="translate(199.317165, 261.298361)"><g><path d="M 3.875 -0.859375 C 2.988281 -0.648438 2.238281 -0.738281 1.625 -1.125 C 1.007812 -1.507812 0.582031 -2.191406 0.34375 -3.171875 L -0.578125 -7.078125 L 0.15625 -7.25 L 1.078125 -3.375 C 1.265625 -2.570312 1.582031 -2.015625 2.03125 -1.703125 C 2.476562 -1.398438 3.039062 -1.332031 3.71875 -1.5 C 4.394531 -1.65625 4.863281 -1.972656 5.125 -2.453125 C 5.394531 -2.929688 5.4375 -3.570312 5.25 -4.375 L 4.328125 -8.25 L 5.03125 -8.421875 L 5.953125 -4.515625 C 6.191406 -3.535156 6.125 -2.734375 5.75 -2.109375 C 5.382812 -1.484375 4.757812 -1.066406 3.875 -0.859375 Z M 3.875 -0.859375 "/></g></g></g><g fill="#ffffff" fill-opacity="1"><g transform="translate(214.692181, 256.670762)"><g><path d="M -1.75 -6.890625 L -1.0625 -7.1875 L 1.734375 -0.75 L 1.046875 -0.453125 Z M -1.75 -6.890625 "/></g></g></g></svg>